<svg xmlns="http://www.w3.org/2000/svg" viewBox="0 0 20 20">
  <path fill="currentColor" fill-rule="evenodd" d="M10 7a3 3 0 100 6 3 3 0 000-6zm-1 3a1 1 0 112 0 1 1 0 01-2 0z" clip-rule="evenodd"/>
  <path fill="currentColor" fill-rule="evenodd" d="M8.257 1.565l-.683 1.542A7.018 7.018 0 005.5 4.358L3.83 4.1a1 1 0 00-.96.48l-1 1.732a1 1 0 00.15 1.2l1.166 1.073A6.98 6.98 0 003 10c0 .46.047.91.137 1.344L1.98 12.49a1 1 0 00-.15 1.2l1 1.732a1 1 0 00.96.48l1.67-.258a7.02 7.02 0 002.075 1.25l.683 1.543a1 1 0 00.914.563h2a1 1 0 00.914-.563l.683-1.542a7.018 7.018 0 002.074-1.251l1.67.258a1 1 0 00.96-.48l1-1.732a1 1 0 00-.15-1.2l-1.166-1.073C18.952 10.91 19 10.46 19 10c0-.461-.048-.91-.137-1.344l1.158-1.147a1 1 0 00.15-1.2l-1-1.732a1 1 0 00-.96-.48l-1.67.259a7.018 7.018 0 00-2.074-1.252L13.743 1.565A1 1 0 0012.83 1h-2a1 1 0 00-.914.565h-.001zM10 5a5 5 0 100 10A5 5 0 0010 5z" clip-rule="evenodd"/>
</svg>
